<svg width="70" height="70" viewBox="0 0 70 70" fill="none" xmlns="http://www.w3.org/2000/svg">
<path d="M14.0262 14.6774C19.9237 8.49551 28.988 7.54614 35.6927 11.2715C36.2717 11.593 36.4809 12.3236 36.1586 12.9026C35.8371 13.4823 35.1064 13.6908 34.5275 13.3693C28.3945 9.96187 20.6784 11.181 15.7675 16.3289C10.7005 21.7051 10.1296 29.7186 14.0496 35.6592C19.449 43.8608 31.1113 45.0968 38.1041 38.1033C42.8152 33.3936 44.1802 25.7979 40.7772 19.6168C40.4578 19.0356 40.6693 18.3064 41.2497 17.9871C41.8301 17.6677 42.56 17.8792 42.8794 18.4596C42.953 18.5937 43.0843 18.8431 43.2097 19.0983C46.6995 26.2121 45.1121 34.491 39.8008 39.8001C31.745 47.8574 18.2889 46.4625 12.0458 36.9797C7.56874 30.1948 8.11853 20.9453 14.0262 14.6774Z" fill="#7ED957"/>
<path d="M10.9535 10.9535C19.8421 2.06571 34.3058 2.06571 43.1951 10.9535C51.1882 18.9481 52.0486 31.4825 45.5394 40.449L49.2785 44.1875C50.5896 43.5597 52.247 43.7624 53.3757 44.8911L63.953 55.4691C66.298 57.8127 66.3002 61.608 63.9537 63.953C61.6095 66.2987 57.8141 66.2995 55.4699 63.953L44.8911 53.3757C43.7631 52.247 43.5597 50.5896 44.1875 49.2785L40.449 45.5386C31.4803 52.0501 18.9466 51.1867 10.9535 43.1951C2.06571 34.3058 2.06571 19.8421 10.9535 10.9535ZM46.5886 51.6789L57.1666 62.2562C58.5732 63.6635 60.8489 63.665 62.257 62.2555C63.6635 60.8497 63.665 58.5739 62.2562 57.1666L51.6789 46.5879C51.2115 46.1205 50.4503 46.1205 49.9829 46.5879L46.5886 49.9829C46.1205 50.4503 46.1205 51.2115 46.5886 51.6789ZM45.7399 47.4374L47.4374 45.7399L44.0205 42.3237C43.7522 42.6212 43.4773 42.9129 43.1951 43.1951C42.9129 43.4765 42.6212 43.7522 42.3237 44.0205L45.7399 47.4374ZM12.6503 41.4976C20.6019 49.4477 33.4811 49.5155 41.4983 41.4976C49.5053 33.4913 49.4579 20.6113 41.4983 12.6503C33.5453 4.69873 20.6048 4.69727 12.6503 12.6503C4.698 20.6033 4.698 33.5446 12.6503 41.4976Z" fill="#7ED957"/>
<path d="M38.0748 14.3777C38.0836 14.3675 38.0931 14.3573 38.1033 14.3471C38.5729 13.8789 39.3327 13.8789 39.8015 14.3471C40.2696 14.8159 40.2696 15.5757 39.8015 16.0446C39.7906 16.0555 39.7811 16.065 39.7702 16.0745C39.2984 16.5127 38.5619 16.5018 38.1033 16.0446C37.6468 15.5859 37.6359 14.8495 38.0748 14.3777Z" fill="#7ED957"/>
<path d="M27.039 39.9138C23.7161 39.9138 20.5924 38.6203 18.243 36.2709C15.8936 33.9215 14.6001 30.7978 14.6001 27.4757C14.6001 24.1529 15.8936 21.0292 18.243 18.6798C20.5924 16.3304 23.7161 15.0369 27.039 15.0369C30.361 15.0369 33.4848 16.3304 35.8342 18.6798C38.1835 21.0292 39.4771 24.1529 39.4771 27.4757C39.4771 30.7978 38.1835 33.9215 35.8342 36.2709C33.4848 38.6203 30.361 39.9138 27.039 39.9138ZM27.039 16.5914C21.0372 16.5914 16.1547 21.4739 16.1547 27.4757C16.1547 33.4768 21.0372 38.3593 27.039 38.3593C33.04 38.3593 37.9225 33.4768 37.9225 27.4757C37.9225 21.4739 33.04 16.5914 27.039 16.5914Z" fill="#FFDE59"/>
<path d="M27.0389 26.6977C25.9671 26.6977 25.095 25.8264 25.095 24.7545C25.095 23.6826 25.9671 22.8113 27.0389 22.8113C28.1101 22.8113 28.9822 23.6826 28.9822 24.7545C28.9822 25.184 29.33 25.5318 29.7595 25.5318C30.1889 25.5318 30.5368 25.184 30.5368 24.7545C30.5368 23.0927 29.3715 21.6985 27.8162 21.3442V20.4786C27.8162 20.0492 27.4677 19.7014 27.0389 19.7014C26.6095 19.7014 26.2609 20.0492 26.2609 20.4786V21.3442C24.7056 21.6985 23.5404 23.0927 23.5404 24.7545C23.5404 26.6839 25.1096 28.253 27.0389 28.253C28.1101 28.253 28.9822 29.1244 28.9822 30.1963C28.9822 31.2681 28.1101 32.1402 27.0389 32.1402C25.9671 32.1402 25.095 31.2681 25.095 30.1963C25.095 29.7668 24.7472 29.419 24.3177 29.419C23.8882 29.419 23.5404 29.7668 23.5404 30.1963C23.5404 31.858 24.7056 33.2522 26.2609 33.6066V34.4721C26.2609 34.9016 26.6095 35.2494 27.0389 35.2494C27.4677 35.2494 27.8162 34.9016 27.8162 34.4721V33.6066C29.3715 33.2522 30.5368 31.858 30.5368 30.1963C30.5368 28.2676 28.9676 26.6977 27.0389 26.6977Z" fill="#FFDE59"/>
</svg>
